<?xml version="1.0" encoding="iso-8859-1"?>
<!-- Generator: Adobe Illustrator 16.0.0, SVG Export Plug-In . SVG Version: 6.00 Build 0)  -->
<!DOCTYPE svg PUBLIC "-//W3C//DTD SVG 1.1//EN" "http://www.w3.org/Graphics/SVG/1.1/DTD/svg11.dtd">
<svg version="1.1" id="Capa_1" xmlns="http://www.w3.org/2000/svg" xmlns:xlink="http://www.w3.org/1999/xlink" x="0px" y="0px"
	 width="485.213px" height="485.212px" viewBox="0 0 485.213 485.212" style="enable-background:new 0 0 485.213 485.212;"
	 xml:space="preserve">
<g>
	<path d="M485.212,272.93v-60.648l-65.535-10.93c-4.564-19.69-12.321-38.083-22.72-54.756l38.647-54.078l-42.876-42.883
		l-54.11,38.62c-16.675-10.366-35.063-18.155-54.759-22.745L272.934,0h-60.65l-10.931,65.509
		c-19.662,4.59-38.083,12.379-54.756,22.745l-54.108-38.62L49.607,92.518l38.648,54.078c-10.396,16.645-18.155,35.066-22.717,54.756
		l-65.537,10.93v60.648l65.537,10.931c4.562,19.695,12.321,38.088,22.717,54.759l-38.648,54.105l42.881,42.881l54.136-38.643
		c16.646,10.393,35.066,18.154,54.729,22.714l10.931,65.535h60.65l10.926-65.535c19.663-4.56,38.084-12.321,54.759-22.714
		l54.11,38.643l42.876-42.881l-38.647-54.105c10.398-16.671,18.155-35.092,22.72-54.759L485.212,272.93z M242.607,363.906
		c-66.989,0-121.302-54.311-121.302-121.3c0-66.989,54.313-121.302,121.302-121.302c66.991,0,121.302,54.313,121.302,121.302
		C363.909,309.595,309.599,363.906,242.607,363.906z"/>
</g>
<g>
</g>
<g>
</g>
<g>
</g>
<g>
</g>
<g>
</g>
<g>
</g>
<g>
</g>
<g>
</g>
<g>
</g>
<g>
</g>
<g>
</g>
<g>
</g>
<g>
</g>
<g>
</g>
<g>
</g>
</svg>
