<?xml version="1.0" standalone="yes"?>

<svg version="1.1" viewBox="0.0 0.0 533.3333333333334 533.3333333333334" fill="none" stroke="none" stroke-linecap="square" stroke-miterlimit="10" xmlns="http://www.w3.org/2000/svg" xmlns:xlink="http://www.w3.org/1999/xlink"><clipPath id="p.0"><path d="m0 0l533.3333 0l0 533.3333l-533.3333 0l0 -533.3333z" clip-rule="nonzero"></path></clipPath><g clip-path="url(#p.0)"><path fill="#000000" fill-opacity="0.0" d="m0 0l533.3333 0l0 533.3333l-533.3333 0z" fill-rule="nonzero"></path><path fill="#000000" d="m8.984252 266.66928l0 0c0 -142.3155 115.36952 -257.68503 257.68503 -257.68503l0 0c68.34235 0 133.88553 27.14888 182.21085 75.4742c48.325317 48.325317 75.47418 113.868515 75.47418 182.21083l0 0c0 142.31552 -115.36951 257.68503 -257.68503 257.68503l0 0c-142.3155 0 -257.68503 -115.36951 -257.68503 -257.68503z" fill-rule="nonzero"></path><path fill="#434343" d="m152.49512 271.44632l0 0c0 -62.51689 51.117096 -113.19685 114.17322 -113.19685l0 0c30.28064 0 59.321045 11.926056 80.732666 33.154587c21.411621 21.22853 33.44055 50.020584 33.44055 80.04227l0 0c0 62.516876 -51.117096 113.19684 -114.17322 113.19684l0 0c-63.05612 0 -114.17322 -50.679962 -114.17322 -113.19684z" fill-rule="nonzero"></path><path fill="#ff0000" d="m207.49448 275.3638l53.18109 -165.5433l53.18112 165.5433z" fill-rule="nonzero"></path><path fill="#ffffff" d="m207.49448 275.36444l53.18109 165.5433l53.18112 -165.5433z" fill-rule="nonzero"></path><path fill="#000000" fill-opacity="0.0" d="m417.23358 168.48294c6.1172485 15.6058655 35.704742 62.67366 36.70343 93.63516c0.99868774 30.961517 -25.592743 76.77823 -30.711304 92.13388" fill-rule="nonzero"></path><path stroke="#ffffff" stroke-width="24.0" stroke-linejoin="round" stroke-linecap="butt" d="m417.23358 168.48294c6.1172485 15.6058655 35.704742 62.67366 36.70343 93.63516c0.99868774 30.961517 -25.592743 76.77823 -30.711304 92.13388" fill-rule="nonzero"></path><path fill="#ffffff" d="m411.98904 300.3186l25.467163 21.724426l35.955383 11.236206l-71.90811 53.18112z" fill-rule="nonzero"></path><path fill="#000000" fill-opacity="0.0" d="m104.11454 162.45801c-6.1172333 15.6058655 -35.70472 62.67366 -36.703407 93.63516c-0.99868774 30.961517 25.592735 76.77823 30.71128 92.13385" fill-rule="nonzero"></path><path stroke="#ffffff" stroke-width="24.0" stroke-linejoin="round" stroke-linecap="butt" d="m104.11454 162.45801c-6.1172333 15.6058655 -35.70472 62.67366 -36.703407 93.63516c-0.99868774 30.961517 25.592735 76.77823 30.71128 92.13385" fill-rule="nonzero"></path><path fill="#ffffff" d="m109.35911 294.29367l-25.467194 21.724426l-35.95538 11.236206l71.90814 53.18112z" fill-rule="nonzero"></path></g></svg>

