<?xml version="1.0" encoding="UTF-8" standalone="no"?>
<!-- Created with Inkscape (http://www.inkscape.org/) -->
<svg xmlns:rdf="http://www.w3.org/1999/02/22-rdf-syntax-ns#" xmlns="http://www.w3.org/2000/svg" height="255.3" viewBox="0 0 658.79999 255.3" width="658.8" version="1.1" xmlns:cc="http://creativecommons.org/ns#" xmlns:dc="http://purl.org/dc/elements/1.1/">
 <metadata>
  <rdf:RDF>
   <cc:Work rdf:about="">
    <dc:format>image/svg+xml</dc:format>
    <dc:type rdf:resource="http://purl.org/dc/dcmitype/StillImage"/>
    <dc:title/>
   </cc:Work>
  </rdf:RDF>
 </metadata>
 <path d="m581.55 249.44c8.8017-14.161 19.092-32.528 26.387-47.096 1.259-2.5142 2.289-4.717 2.289-4.8952 0-.17817-1.729-2.7111-3.8422-5.6288-2.1132-2.9176-6.6931-9.2981-10.177-14.179l-6.3352-8.874 4.8524-17.146c2.6688-9.4302 4.9486-17.148 5.0662-17.151.11757-.003 5.5708 7.4947 12.118 16.661 6.5475 9.1667 12.007 16.558 12.133 16.425.2946-.31165 2.4853-5.6605 4.6537-11.363 9.8446-25.888 14.531-46.482 14.531-63.855 0-28.183-12.674-43.504-39.282-47.488-4.2953-.64317-18.763-.73307-23.868-.14829-15.835 1.8143-33.32 5.7206-50.91 11.374l-2.61.83883 5.6571 7.9103c5.096 7.1257 5.6314 7.9887 5.3978 8.7-.14265.43432-2.3046 8.0122-4.8044 16.84-2.4997 8.8275-4.6341 16.213-4.7431 16.413-.11652.21366-6.1212-7.9125-14.576-19.725-7.9076-11.049-14.537-20.088-14.732-20.088-.62103 0-14.044 5.4614-24.082 9.7982-2.8612 1.2361-5.2757 2.1739-5.3657 2.084-.18918-.18918 16.353-8.39 23.533-11.667l4.8654-2.2204-10.97-15.339-10.97-15.339 4.8357-17.014c2.6596-9.3579 4.9115-17.09 5.0041-17.183.21363-.21362-1.7822-2.9596 19.392 26.681 10.078 14.108 18.545 25.937 18.814 26.288l.49059.63791 5.836-2.2256c7.4893-2.8561 23.825-8.3388 30.586-10.265 27.265-7.7694 48.663-10.251 64.78-7.5141 14.097 2.3942 23.737 8.8475 28.945 19.376 2.1252 4.2965 3.3932 8.912 4.1038 14.937.44859 3.8037.19251 14.406-.46413 19.216-2.8112 20.592-11.918 46.419-27.38 77.645l-3.6864 7.4451 1.4228 2.0049c.78255 1.1027 6.3924 8.938 12.466 17.412l11.044 15.407-4.8905 17.218c-2.6898 9.4698-4.958 17.215-5.0405 17.211s-6.7558-9.2848-14.83-20.625c-8.0738-11.34-14.767-20.723-14.873-20.851-.10632-.12806-1.6592 2.3019-3.451 5.4-9.2503 15.995-30.174 49.881-30.801 49.882-.11244.00023 1.4528-2.6658 3.4782-5.9246zm-505.48-39.59c-5.4487-.35507-10.14-3.2831-12.274-7.6604-2.6834-5.5055-2.702-15.226-.03914-20.399 2.4079-4.6776 6.3364-7.009 12.371-7.3417 3.5442-.1954 6.0579.204 8.4914 1.3492 1.8673.87875 4.6117 3.495 5.6308 5.368l.68085 1.2513-1.7203.64366c-1.5242.57029-1.7557.59128-2.0308.18414-1.5211-2.2507-2.1455-2.9463-3.378-3.7627-2.125-1.4075-4.2017-1.9092-7.2911-1.7615-7.1102.33994-10.871 5.2486-10.876 14.194-.0027 5.3802 1.4535 9.3976 4.351 12.003 2.0961 1.8846 4.2431 2.6379 7.5837 2.6608 2.4107.0166 2.9089-.08 4.65-.90169 2.2194-1.0474 4.0671-2.7162 5.2589-4.7498.45012-.76808.96977-1.336 1.1548-1.2622 2.3229.92782 2.8864 1.1985 2.8864 1.3862 0 .49428-2.4009 3.8368-3.4866 4.854-3.1041 2.9084-7.1914 4.2563-11.963 3.9453zm88.8.006c-5.646-.39611-10.223-3.3396-12.41-7.9819-1.3199-2.8008-1.8926-5.8142-1.8926-9.9595 0-7.0595 1.8794-11.825 5.8028-14.713 2.3917-1.7606 4.8252-2.5428 8.5589-2.751 3.5444-.19763 6.055.20072 8.4914 1.3472 1.8673.87875 4.6117 3.495 5.6308 5.368l.68085 1.2513-1.7203.64365c-1.5242.5703-1.7557.59129-2.0308.18415-1.5211-2.2507-2.1455-2.9463-3.378-3.7627-2.118-1.4029-4.2044-1.9095-7.253-1.7612-7.2227.3515-10.947 5.2407-10.927 14.344.0157 6.933 2.7773 11.998 7.5368 13.824 1.9913.76377 5.7627.9266 7.7637.3352 2.5444-.75204 5.3859-3.2114 7.1468-6.1857.2779-.46941.41599-.45837 1.875.14997.86625.36118 1.575.75831 1.575.88251s-.53919 1.0333-1.1982 2.0201c-3.2284 4.8346-8.1914 7.1906-14.252 6.7654zm47.1-.10758c-5.3009-.56013-9.1832-3.2558-11.439-7.9424-1.377-2.8612-1.9008-5.5871-1.9008-9.8914 0-4.345.53133-7.089 1.917-9.9 2.3698-4.8076 6.3707-7.2546 12.381-7.5726 5.1023-.27001 8.7.79068 11.47 3.3816 1.3822 1.2929 3.5481 4.2347 3.285 4.462-.0625.054-.85141.33935-1.7532.63416l-1.6396.53601-.6104-.85105c-1.4254-1.9873-2.7174-3.1727-4.312-3.9559-1.559-.76573-1.9821-.83421-5.1547-.83421-3.3022 0-3.5458.044-5.4624.9876-4.2946 2.1142-6.2224 6.1766-6.2224 13.112 0 5.5669 1.3582 9.396 4.2574 12.003 2.0856 1.8751 4.24 2.6328 7.5837 2.667 3.2768.0336 6.0726-.78048 8.55-2.4894l1.65-1.1382.084-3.7961.084-3.7961h-5.109-5.109v-1.5-1.5h6.9 6.9v5.9745 5.9745l-1.425 1.2574c-3.6299 3.2028-9.2531 4.7767-14.925 4.1774zm67.339-.0216c-8.9804-.88358-14.291-8.3202-13.683-19.162.30104-5.3716 1.6897-8.9892 4.5668-11.896 2.8067-2.8361 6.7726-4.2948 11.677-4.2948 8.1314 0 13.649 4.1188 15.66 11.691.71761 2.7012.71426 9.0201-.006 11.7-.81969 3.0489-2.0618 5.4042-3.8934 7.3825-3.4121 3.6855-8.1173 5.1901-14.321 4.5797zm7.3318-3.8772c3.458-1.2938 6.1683-4.7769 7.1084-9.135.62533-2.8991.50229-7.7248-.26007-10.2-1.9017-6.1743-6.0272-9.0858-12.463-8.7957-3.2496.14644-5.385.97646-7.4797 2.9073-2.5363 2.3379-3.7568 5.449-4.0166 10.238-.44769 8.2541 3.0924 14.039 9.4902 15.509 2.1565.49533 5.5141.26455 7.6212-.52384zm147.6 3.8852c-6.4538-.74303-10.728-4.5984-12.606-11.37-.76434-2.7566-.76413-10.145 0-12.9 2.0274-7.3069 7.052-11.082 14.77-11.096 4.6394-.008 8.1214 1.1827 10.646 3.642 1.5866 1.5453 3.1771 4.0778 2.7848 4.434-.14583.13238-.9309.48865-1.7446.79171-1.1365.42325-1.5087.46328-1.6056.17265-.26145-.78432-2.0775-2.912-3.2466-3.8037-1.9109-1.4575-4.1714-2.0322-7.432-1.8896-2.2568.0987-3.083.27434-4.4601.9481-2.1691 1.0612-4.4851 3.5712-5.2967 5.7404-2.3828 6.3685-1.1568 15.233 2.6306 19.02 3.3051 3.3051 8.8214 4.2062 13.092 2.1387 1.8093-.87588 3.9116-2.804 4.8557-4.4535.43926-.76743.84252-1.452.89613-1.5212.18093-.23362 3.0957 1.2754 3.0946 1.6022 0 .17805-.28896.79585-.64071 1.3729-3.2956 5.4062-8.8975 7.9586-15.739 7.171zm32.256.0215c-5.771-.53689-9.5106-3.1671-10.709-7.532l-.29934-1.0904 1.6663-.33464c2.2075-.44333 2.0698-.48577 2.4826.76512.52104 1.5787 2.4461 3.5238 4.2655 4.3096 3.2998 1.4254 9.325 1.0339 11.94-.77576 1.9575-1.3546 3.0054-4.1034 2.4089-6.3186-.34584-1.2843-1.9719-3.0424-3.5469-3.835-.53127-.26734-2.9948-1.0266-5.4745-1.6872-5.2918-1.4098-7.1045-2.0853-8.8867-3.3115-1.9149-1.3175-2.8862-3.1588-3.0532-5.7881-.39063-6.149 3.182-9.3352 10.88-9.7032 5.2384-.25048 8.7778.72972 11.038 3.0569 1.0552 1.0865 2.4813 4.1365 2.1698 4.6405-.0827.13382-.77679.33724-1.5424.45205-.7656.11481-1.5606.27344-1.7667.35251-.22194.0852-.45828-.19974-.5799-.69914-.67698-2.7798-3.3388-4.5382-7.2775-4.8074-5.1083-.34918-8.355 1.289-9.0967 4.5899-.55941 2.4898.60471 4.592 3.3054 5.9688.7425.37852 3.4425 1.2485 6 1.9332 7.2729 1.9472 9.5145 3.2118 10.971 6.1892.72843 1.4888.78972 1.8792.66906 4.2612-.0967 1.9084-.31011 2.9647-.78405 3.8803-2.1499 4.1534-7.5485 6.1563-14.78 5.4835zm-465.58-17.56v-17.267l8.325.0959c7.9293.0914 8.4088.12952 10.088.80322 2.4212.97129 4.4172 2.971 5.276 5.2856.96168 2.5922.78933 6.516-.39229 8.9311-1.0172 2.079-2.9891 3.8716-5.2527 4.775-1.5273.60952-2.3072.68651-7.9191.78172l-6.225.10561v6.8783 6.8783h-1.95-1.95v-17.267zm16.663-.59c2.4156-1.2364 3.5255-2.9997 3.687-5.8572.13720-2.428-.2834-3.864-1.5565-5.314-1.7522-1.9957-2.9103-2.2982-9.2682-2.4214l-5.625-.10899v7.4019 7.4019l5.4977-.0988c5.4357-.0977 5.5177-.10904 7.265-1.0034zm10.726 16.114c.36370-.95707 3.3613-8.7168 6.6613-17.244l6-15.504 2.2851-.006 2.2851-.006 6.4815 16.725c3.5648 9.1988 6.5697 16.968 6.6776 17.265.17843.49117.01116.53153-1.8649.45l-2.0609-.09-2.0053-5.25-2.0053-5.25-7.4933-.0801-7.4933-.0801-.88672 2.3301c-.48770 1.2816-1.3986 3.7138-2.0243 5.4051l-1.1376 3.075h-2.0402-2.0402l.66127-1.7401zm21.211-12.316c0-.14086-.82592-2.4021-1.8354-5.025s-2.4073-6.3741-3.1064-8.3361l-1.271-3.5672-.91748 2.5172c-.50462 1.3845-1.9418 5.2076-3.1936 8.4957-1.2519 3.2882-2.2762 6.0219-2.2762 6.075s2.835.0965 6.3.0965 6.3-.11526 6.3-.25613zm48.6-3.1939v-17.25h1.95 1.95v17.25 17.25h-1.95-1.95v-17.25zm12.9 0v-17.25h10.8 10.8v1.5 1.5h-8.85-8.85v6.9 6.9h8.55 8.55v1.65 1.65h-8.55-8.55v7.2 7.2h-1.95-1.95v-17.25zm28.2 0v-17.25h1.95 1.95v17.25 17.25h-1.95-1.95v-17.25zm97.2 0v-17.25h11.55 11.55v1.5 1.5h-9.6-9.6v6 6h8.85 8.85v1.65 1.65h-8.85-8.85v6.45 6.45h10.05 10.05v1.65 1.65h-12-12v-17.25zm69.3-.0121v-17.262l2.4706.0871 2.4706.0871 5.6114 12.75c3.0862 7.0125 5.9106 13.624 6.2764 14.693.53229 1.5548.72579 1.8463.96927 1.4603.16734-.26526 3.0258-6.8769 6.3521-14.693l6.0479-14.21 2.4509-.0871 2.4509-.0871v17.262 17.262h-1.65-1.65l-.006-14.625-.006-14.625-1.5795 3.75c-.86877 2.0625-3.6632 8.6438-6.2098 14.625l-4.6302 10.875h-1.6932-1.6932l-5.6286-12.971c-3.0957-7.134-5.9156-13.715-6.2662-14.625l-.63708-1.6541-.0778 14.625-.0779 14.625h-1.6472-1.6472v-17.262zm39.65 17.006c.055-.14106 3.07-7.9024 6.7-17.247l6.6-16.991 2.2703-.003 2.2704-.003 6.4877 16.725c3.5682 9.1988 6.5773 16.961 6.6867 17.25.1776.46842-.0234.525-1.8652.525h-2.0642l-.861-2.325c-.47355-1.2788-1.3965-3.711-2.051-5.4051l-1.19-3.0801-7.4997.0801-7.4997.0801-1.9867 5.325-1.9867 5.325h-2.0554c-1.1305 0-2.0104-.11541-1.9554-.25646zm21.764-14.069c-.52557-1.7718-6.099-16.264-6.2567-16.269-.10587-.003-.28284.35387-.39327.79391-.11046.44003-1.4751 4.1658-3.0325 8.2794s-2.8317 7.5336-2.8317 7.5999 2.8508.12057 6.335.12057c5.8927 0 6.3241-.0367 6.1793-.525zm21.686-1.425v-15.75h-6-6v-1.5-1.5h13.95 13.95v1.5 1.5h-6-6v15.75 15.75h-1.95-1.95v-15.75zm21-1.5v-17.25h1.8 1.8v17.25 17.25h-1.8-1.8v-17.25zm93 0v-17.25h1.95 1.95v15.6 15.6h8.4 8.4v1.65 1.65h-10.35-10.35v-17.25zm34.5 1.5v-15.75h-6-6v-1.5-1.5h13.95 13.95v1.5 1.5h-6-6v15.75 15.75h-1.95-1.95v-15.75zm20.7-1.5v-17.25l7.425.005c8.4172.006 10.298.26932 13.8 1.9326 5.389 2.5592 8.1641 7.6111 8.1641 14.862 0 6.5538-2.2195 11.586-6.3949 14.5-3.9536 2.759-6.0628 3.1876-15.72 3.1946l-7.275.005v-17.25zm16.957 13.229c3.5617-1.244 6.6775-4.4583 7.8246-8.0718.66039-2.0802.88425-6.961.42606-9.2898-.66846-3.3977-2.668-6.3657-5.3458-7.935-2.4341-1.4265-4.8397-1.9001-10.637-2.0943l-5.325-.17834v14.173 14.173l5.775-.12483c4.487-.097 6.1111-.24224 7.282-.65123zm18.743 1.6208v-2.4h1.95 1.95v2.4 2.4h-1.95-1.95v-2.4zm-358.05-53.424c-6.7691-.92265-13.141-3.4492-17.079-6.7721-6.722-5.6724-10.071-14.619-10.071-26.902 0-17.596 7.2703-27.88 22.101-31.263 8.4981-1.9385 19.33-1.6404 28.295.77887l2.4036.64856v3.8992c0 3.5974-.0406 3.8822-.525 3.6792-5.6175-2.3546-15.058-3.5987-21.766-2.8683-10.082 1.0979-16.814 5.5964-19.79 13.224-1.483 3.8011-1.8679 6.3022-1.847 12 .0271 7.3672 1.0374 11.831 3.6559 16.154 3.423 5.6505 8.5066 8.8126 16.249 10.107 6.0635 1.0139 14.722.27403 21.271-1.8176 1.2664-.40449 2.4079-.73716 2.5366-.73927.12868-.002.19618 1.7053.15 3.7943l-.084 3.7981-1.95.55985c-4.4321 1.2725-8.6481 1.8029-15.15 1.9062-3.465.055-7.245-.0288-8.4-.1862zm112.35.14105c-.5775-.0662-2.3325-.33894-3.9-.606-16.948-2.8874-25.504-14.028-25.499-33.202.005-18.962 8.278-29.177 25.949-32.038 3.1101-.50358 13.307-.5188 16.8-.0251 2.4546.34698 5.9891 1.0898 8.925 1.8757l1.125.30114v3.8567 3.8567l-2.625-.84235c-10.882-3.492-22.597-3.1119-30.51.98972-7.9207 4.1055-11.848 13.486-10.736 25.641.45129 4.9311 1.2298 7.9437 2.962 11.462 2.6502 5.3828 7.2883 8.9788 13.842 10.732 2.6186.70046 3.4852.78293 8.4671.80573 3.4677.0159 6.366-.12547 7.725-.37671l2.175-.4021v-11.073-11.073h4.353 4.353l-.078 13.711-.078 13.711-2.6325.83859c-4.396 1.4003-7.3409 1.8073-13.718 1.8956-3.2175.0446-6.3225.0268-6.9-.0394zm209.46-.14961c-14.978-2.0124-23.225-10.196-25.436-25.238-.68418-4.6557-.45267-13.8.45594-18.008 2.1987-10.182 7.3447-16.78 15.766-20.213 8.9175-3.6356 23.247-3.6429 32.225-.0165 8.549 3.4531 13.786 10.589 15.818 21.552.72924 3.9355.73413 13.932.009 18.093-2.2927 13.152-9.2604 20.554-21.95 23.318-3.1676.68993-13.283.99664-16.889.51212zm14.94-7.76c10.294-2.9726 15.317-11.254 15.289-25.209-.0129-6.5367-.76875-10.48-2.8666-14.958-1.0922-2.3314-1.7107-3.2016-3.6439-5.1272-2.6428-2.6325-5.2506-4.0908-9.2284-5.1609-3.5539-.95602-11.184-.96014-14.988-.008-3.9037.97705-6.7097 2.4323-9.1759 4.7587-4.2181 3.9791-6.285 9.0445-6.8696 16.835-.52488 6.9958.55395 14.065 2.8766 18.85.87252 1.7974 1.7194 2.936 3.5512 4.7742 3.2179 3.2292 6.1699 4.7469 11.105 5.7097 3.2396.63196 11.055.37197 13.95-.4641zm-572.4-25.07v-32.864l16.875.1c18.52.10973 18.169.0779 22.357 2.027 3.4026 1.5837 6.0453 4.937 7.0024 8.8854.53558 2.2094.44559 7.7088-.16351 9.9914-2.1843 8.1859-9.477 13.49-22.314 16.229-1.701.36292-3.1642.58837-3.2516.501-.14201-.14201-1.8829-6.6869-1.8991-7.1396-.0036-.10117 1.1378-.41121 2.5365-.689 5.9093-1.1736 9.9691-3.0307 12.784-5.8481 2.521-2.523 3.3403-4.4753 3.3482-7.9789.01089-4.791-2.1996-7.5121-6.9154-8.5127-.99608-.21134-5.3374-.33731-11.625-.33731h-10.035v29.25 29.25h-4.35-4.35v-32.864zm91.022 32.34c.10558-.29315 6.3617-15.082 13.902-32.865l13.71-32.332 4.9032.0819 4.9032.082 13.93 32.662c7.6612 17.964 13.93 32.713 13.93 32.775 0 .0623-2.0786.11327-4.6192.11327h-4.6192l-2.1868-5.175c-1.2027-2.8462-3.1574-7.47-4.3437-10.275l-2.1569-5.1-11.018-.0787c-8.5992-.0615-10.989-.16022-10.886-.45.0725-.2042.64337-1.8204 1.2686-3.5915l1.1368-3.2202 8.0196-.0798 8.0196-.0798-5.7326-13.851c-3.1529-7.6182-5.8116-13.93-5.908-14.025-.0965-.0958-5.3706 12.415-11.72 27.801l-11.545 27.975-4.5901.083c-4.289.0776-4.5775.0481-4.3981-.45zm340.08-32.333v-32.85h21.45 21.45v3.6 3.6h-17.1-17.1v10.8 10.8h16.35 16.35v3.6 3.6h-16.35-16.35v11.25 11.25h17.4 17.4v3.6 3.6h-21.75-21.75v-32.85z"/>
</svg>
